<svg width="18" height="16" viewBox="0 0 18 16" fill="none" xmlns="http://www.w3.org/2000/svg">
<path d="M13.1862 15.4885H4.814C1.75816 15.4885 0 13.7304 0 10.6745V4.814C0 1.75816 1.75816 0 4.814 0H13.1862C16.242 0 18.0002 1.75816 18.0002 4.814V10.6745C18.0002 13.7304 16.242 15.4885 13.1862 15.4885ZM4.814 1.25583C2.41956 1.25583 1.25583 2.41956 1.25583 4.814V10.6745C1.25583 13.069 2.41956 14.2327 4.814 14.2327H13.1862C15.5806 14.2327 16.7443 13.069 16.7443 10.6745V4.814C16.7443 2.41956 15.5806 1.25583 13.1862 1.25583H4.814Z" fill="#A89E9E"/>
<path d="M9.00022 8.47252C8.29696 8.47252 7.58533 8.25485 7.04114 7.81113L4.42065 5.71809C4.15274 5.50041 4.10251 5.10692 4.32018 4.83901C4.53786 4.5711 4.93135 4.52087 5.19926 4.73854L7.81974 6.83159C8.45603 7.34229 9.53604 7.34229 10.1723 6.83159L12.7928 4.73854C13.0607 4.52087 13.4626 4.56272 13.6719 4.83901C13.8896 5.10692 13.8477 5.50878 13.5714 5.71809L10.9509 7.81113C10.4151 8.25485 9.70348 8.47252 9.00022 8.47252Z" fill="#A89E9E"/>
</svg>

